PathFileType	4	(X/Y/Z)	 s04c0001.trc
DataRate	CameraRate	NumFrames	NumMarkers	Units	OrigDataRate	OrigDataStartFrame	OrigNumFrames
200	200	5	49	mm	200	751	2000
Frame#	Time	racr			lacr			c7			jug			rlel			rdr			llel			ldr			s2			lic			ric			lasi			rasi			rpsi			lpsi			rgt			lgt			rth1			rth2			rth3			rth4			rlfc			rmfc			rsh1			rsh2			rsh3			rsh4			rlmal			rmmal			rcal			rtoe			rmt5			rmt1			lth1			lth2			lth4			lth3			llfc			lmfc			lsh1			lsh2			lsh3			lsh4			llmal			lmmal			lcal			ltoe			lmt1			lmt5			
		X1	Y1	Z1	X2	Y2	Z2	X3	Y3	Z3	X4	Y4	Z4	X5	Y5	Z5	X6	Y6	Z6	X7	Y7	Z7	X8	Y8	Z8	X9	Y9	Z9	X10	Y10	Z10	X11	Y11	Z11	X12	Y12	Z12	X13	Y13	Z13	X14	Y14	Z14	X15	Y15	Z15	X16	Y16	Z16	X17	Y17	Z17	X18	Y18	Z18	X19	Y19	Z19	X20	Y20	Z20	X21	Y21	Z21	X22	Y22	Z22	X23	Y23	Z23	X24	Y24	Z24	X25	Y25	Z25	X26	Y26	Z26	X27	Y27	Z27	X28	Y28	Z28	X29	Y29	Z29	X30	Y30	Z30	X31	Y31	Z31	X32	Y32	Z32	X33	Y33	Z33	X34	Y34	Z34	X35	Y35	Z35	X36	Y36	Z36	X37	Y37	Z37	X38	Y38	Z38	X39	Y39	Z39	X40	Y40	Z40	X41	Y41	Z41	X42	Y42	Z42	X43	Y43	Z43	X44	Y44	Z44	X45	Y45	Z45	X46	Y46	Z46	X47	Y47	Z47	X48	Y48	Z48	X49	Y49	Z49	
751	3.7550	164.907119	1566.747197	284.211565	196.893802	1566.261531	-81.711617	112.983196	1591.609915	84.590332	248.708299	1532.670487	99.706172	94.444201	1227.140909	384.343284	210.101638	988.686844	498.422670	156.449007	1252.402816	-199.089398	292.295292	991.566598	-278.734789	63.301808	1053.763599	97.975179	238.997677	1112.735992	-47.064561	201.906921	1102.221605	273.968542	285.678512	1056.927720	6.017837	266.350475	1060.949691	232.275434	80.119109	1089.118523	142.383120	81.698751	1085.157808	63.276230	164.964068	1000.992638	278.008683	188.716641	955.998874	-67.439740	180.072705	865.681290	299.674989	194.951426	779.065014	289.890216	167.930439	698.956677	280.168009	230.834348	778.494484	280.030959	153.928251	547.910405	250.112999	161.468326	525.473190	139.973972	105.473564	425.503597	268.493225	121.553799	336.022322	260.075948	88.684794	256.892573	243.229352	157.675965	335.344625	245.973259	89.146349	103.119978	231.643594	138.469016	111.362851	159.432461	48.177608	68.255409	168.124241	314.019732	83.399213	304.764061	232.165002	52.835477	326.687216	279.346249	49.991564	227.716738	192.049939	862.341218	-79.962257	211.630033	777.551845	-77.868175	246.956461	776.300712	-67.765237	185.661589	692.553205	-72.341564	165.056697	551.730471	-53.698578	190.895845	521.892078	50.693666	148.700031	423.585007	-80.387061	171.101542	339.724859	-67.864078	147.564155	253.863774	-67.513336	200.383334	341.167234	-41.680692	146.806702	104.525590	-63.816978	154.831767	100.134225	22.074157	80.145841	77.284472	-14.596773	376.938399	82.987886	-57.737427	312.825196	55.045683	0.001789	302.236701	43.196148	-111.003794	
752	3.7600	164.948049	1566.794769	284.201666	196.913637	1566.312101	-81.718456	113.002622	1591.621510	84.590593	248.717451	1532.721911	99.708695	94.470557	1227.198077	384.401497	210.149894	988.770818	498.495943	156.422451	1252.471552	-199.140362	292.198970	991.574276	-278.763406	63.277532	1053.759211	97.977563	238.959874	1112.750332	-47.058649	201.918491	1102.261501	273.980575	285.647035	1056.927663	6.027957	266.318831	1060.955497	232.297015	80.105811	1089.169352	142.417872	81.654142	1085.171773	63.284563	164.921360	1001.001109	278.022273	188.686792	955.990527	-67.428894	180.037314	865.691775	299.688245	194.898942	779.181363	290.204260	167.899401	698.949183	280.174309	230.881485	778.367640	280.147341	153.914600	547.900344	250.105672	161.464458	525.471979	139.974631	105.454938	425.506970	268.495542	121.528970	336.028635	260.078477	88.658588	256.886912	243.229612	157.675784	335.339865	245.972082	89.153827	103.116797	231.638348	138.466185	111.350136	159.429575	48.175195	68.253636	168.123591	314.037712	83.400363	304.769902	232.167237	52.822103	326.689070	279.339307	49.986520	227.707953	192.024109	862.341431	-79.968258	211.618905	777.547968	-77.853925	246.953614	776.302090	-67.751240	185.647634	692.551531	-72.345298	165.060835	551.726888	-53.695855	190.896938	521.899648	50.702825	148.699326	423.575427	-80.383238	171.094033	339.705513	-67.836368	147.569438	253.880094	-67.509629	200.379525	341.169252	-41.683059	146.805366	104.525113	-63.802627	154.823729	100.135329	22.073392	80.146092	77.290911	-14.599657	376.933334	83.009789	-57.739507	312.818125	55.055938	0.000235	302.212417	43.190455	-110.988905	
753	3.7650	164.982291	1566.847984	284.198743	196.951078	1566.339359	-81.725585	113.005143	1591.645687	84.567628	248.733729	1532.758852	99.707347	94.525888	1227.270432	384.440492	210.207711	988.837807	498.546268	156.401074	1252.511606	-199.159661	292.119716	991.570320	-278.772958	63.244279	1053.772404	97.980986	238.936524	1112.737645	-47.023004	201.915164	1102.254813	273.982158	285.624026	1056.941636	6.043225	266.337346	1060.994462	232.324215	80.098078	1089.127237	142.419642	81.618077	1085.190043	63.290699	164.885872	1000.996645	278.026100	188.672808	956.004277	-67.426911	179.973247	865.688260	299.681405	194.842899	779.200020	290.217747	167.875336	698.933211	280.162754	230.817776	778.378000	280.173964	153.889130	547.902219	250.118890	161.449768	525.469745	139.990439	105.427747	425.495659	268.504805	121.548623	336.032508	260.079291	88.655393	256.873368	243.222721	157.670526	335.326880	245.974228	89.151814	103.108823	231.642948	138.459855	111.365304	159.426402	48.189284	68.259005	168.133848	314.014565	83.402686	304.768280	232.165976	52.837636	326.682065	279.341003	49.983845	227.710760	192.006901	862.343948	-79.949814	211.604556	777.534134	-77.839401	246.927828	776.294186	-67.736974	185.626655	692.553893	-72.341137	165.053877	551.732542	-53.693525	190.894055	521.896972	50.716632	148.708165	423.594580	-80.378769	171.099365	339.701857	-67.856259	147.570424	253.866645	-67.507613	200.398091	341.163143	-41.669020	146.824164	104.505997	-63.795711	154.823300	100.135562	22.073716	80.150865	77.284531	-14.590993	376.926638	82.995934	-57.743057	312.828751	55.051566	0.001108	302.223223	43.190232	-110.994876	
754	3.7700	165.009351	1566.895554	284.206927	196.965300	1566.387961	-81.748901	112.987688	1591.668439	84.574604	248.761213	1532.802993	99.684450	94.550513	1227.339872	384.509487	210.250461	988.916161	498.609993	156.370691	1252.566242	-199.188559	292.040326	991.573224	-278.778319	63.223902	1053.776234	97.985655	238.910217	1112.735553	-47.000001	201.915608	1102.255195	274.008163	285.580743	1056.938580	6.053356	266.280473	1060.999017	232.331408	80.084393	1089.168342	142.449124	81.573792	1085.188222	63.294001	164.837652	1000.992738	278.023283	188.661093	956.003666	-67.414319	179.944920	865.682888	299.678761	194.814331	779.191019	290.228113	167.852084	698.937758	280.167995	230.810474	778.368799	280.152277	153.878430	547.897200	250.122230	161.421662	525.473355	139.982957	105.424124	425.487939	268.506433	121.532826	336.017063	260.092986	88.645021	256.872403	243.222190	157.646987	335.332866	245.974645	89.148030	103.106121	231.653042	138.451789	111.365500	159.404191	48.176626	68.259769	168.126104	314.027592	83.410512	304.765297	232.190351	52.823281	326.681793	279.339194	49.994064	227.723506	192.000353	862.339822	-79.936979	211.575452	777.546740	-77.848335	246.905677	776.315319	-67.760796	185.629579	692.550100	-72.324555	165.045159	551.727193	-53.674681	190.883902	521.883864	50.709882	148.706549	423.585441	-80.362909	171.089125	339.710326	-67.841680	147.569927	253.859196	-67.507293	200.370748	341.160250	-41.664049	146.805358	104.525123	-63.802637	154.842341	100.126215	22.058174	80.150794	77.285771	-14.592385	376.937737	83.002453	-57.751237	312.822620	55.046703	-0.014162	302.225914	43.196458	-110.997869	
755	3.7750	165.023023	1566.944522	284.187989	197.005008	1566.426795	-81.759502	112.989935	1591.698963	84.565675	248.774484	1532.818717	99.658352	94.593370	1227.443204	384.589068	210.307555	988.984902	498.671894	156.341671	1252.639605	-199.200872	291.965417	991.584923	-278.762383	63.185367	1053.778139	97.983010	238.894775	1112.739203	-46.988103	201.909276	1102.272104	274.029660	285.574610	1056.929740	6.088172	266.254597	1060.998821	232.338964	80.056251	1089.174120	142.468511	81.547848	1085.198297	63.295683	164.809718	1000.996916	278.046877	188.649864	955.997719	-67.408466	179.905225	865.682006	299.696809	194.793508	779.188302	290.239897	167.817777	698.948391	280.174133	230.778618	778.370437	280.182760	153.858790	547.892383	250.124601	161.409136	525.466923	140.001294	105.397928	425.491936	268.515611	121.505927	336.011525	260.075487	88.631716	256.879081	243.241285	157.640250	335.326088	245.978895	89.144813	103.101603	231.655187	138.457879	111.339050	159.422901	48.183554	68.253906	168.129451	314.016362	83.407806	304.770263	232.169506	52.832886	326.681324	279.339853	49.999087	227.712969	191.969671	862.343511	-79.949513	211.567566	777.552085	-77.834711	246.894851	776.317564	-67.746520	185.617560	692.551857	-72.324755	165.022581	551.726442	-53.663366	190.894058	521.896973	50.716633	148.696197	423.584308	-80.357603	171.091824	339.715627	-67.841549	147.570447	253.879079	-67.506456	200.377841	341.158485	-41.655876	146.805355	104.525127	-63.802642	154.823306	100.135557	22.073690	80.151781	77.280839	-14.597026	376.949900	82.986180	-57.730102	312.818728	55.053780	-0.003569	302.210756	43.214444	-111.004839	
